{
  "accessors": [
    {
      "bufferView": 2,
      "componentType": 5126,
      "count": 65533,
      "max": [
        0.43831098079681396,
        0.366862028837204,
        0.4360165297985077
      ],
      "min": [
        -0.43831101059913635,
        -0.5831975340843201,
        -0.15787050127983093
      ],
      "type": "VEC3"
    },
    {
      "bufferView": 2,
      "byteOffset": 786396,
      "componentType": 5126,
      "count": 65533,
      "max": [
        0.9999985098838806,
        0.9995177388191223,
        0.5776838064193726
      ],
      "min": [
        -0.9999986290931702,
        -0.9996663928031921,
        -0.9999852776527405
      ],
      "type": "VEC3"
    },
    {
      "bufferView": 1,
      "componentType": 5126,
      "count": 65533,
      "max": [
        0.990880012512207,
        0.7431600093841553
      ],
      "min": [
        0.009109999984502792,
        0.25227001309394836
      ],
      "type": "VEC2"
    },
    {
      "bufferView": 0,
      "componentType": 5125,
      "count": 98283,
      "type": "SCALAR"
    },
    {
      "bufferView": 2,
      "byteOffset": 1572792,
      "componentType": 5126,
      "count": 1711,
      "max": [
        0.1628011167049408,
        0.3668225407600403,
        0.33066970109939575
      ],
      "min": [
        -2.999999892949745e-08,
        0.29497089982032776,
        0.013188139535486698
      ],
      "type": "VEC3"
    },
    {
      "bufferView": 2,
      "byteOffset": 1593324,
      "componentType": 5126,
      "count": 1711,
      "max": [
        0.5967776775360107,
        0.9976485371589661,
        0.3118334412574768
      ],
      "min": [
        -0.19269131124019623,
        0.5982389450073242,
        -0.7841739058494568
      ],
      "type": "VEC3"
    },
    {
      "bufferView": 1,
      "byteOffset": 524264,
      "componentType": 5126,
      "count": 1711,
      "max": [
        0.4693099856376648,
        0.49772000312805176
      ],
      "min": [
        0.37727001309394836,
        0.37498998641967773
      ],
      "type": "VEC2"
    },
    {
      "bufferView": 0,
      "byteOffset": 393132,
      "componentType": 5125,
      "count": 2565,
      "type": "SCALAR"
    },
    {
      "bufferView": 2,
      "byteOffset": 1613856,
      "componentType": 5126,
      "count": 56061,
      "max": [
        2.8478307723999023,
        0.5680860280990601,
        2.85436749458313
      ],
      "min": [
        -2.8608977794647217,
        -11.0,
        -2.854360342025757
      ],
      "type": "VEC3"
    },
    {
      "bufferView": 2,
      "byteOffset": 2286588,
      "componentType": 5126,
      "count": 56061,
      "max": [
        1.0,
        1.0,
        1.0
      ],
      "min": [
        -1.0,
        -1.0,
        -0.9999889135360718
      ],
      "type": "VEC3"
    },
    {
      "bufferView": 0,
      "byteOffset": 403392,
      "componentType": 5125,
      "count": 57282,
      "type": "SCALAR"
    }
  ],
  "asset": {
    "extras": {
      "author": "GigaNeo (https://sketchfab.com/GigaNeo)",
      "license": "CC-BY-4.0 (http://creativecommons.org/licenses/by/4.0/)",
      "source": "https://sketchfab.com/3d-models/implant-sculpting-software-item-6683-905a01f23a1d4439b55714ae291ecf05",
      "title": "Implant Sculpting Software. Item #6683"
    },
    "generator": "Sketchfab-12.67.0",
    "version": "2.0"
  },
  "bufferViews": [
    {
      "buffer": 0,
      "byteLength": 632520,
      "name": "floatBufferViews",
      "target": 34963
    },
    {
      "buffer": 0,
      "byteLength": 537952,
      "byteOffset": 632520,
      "byteStride": 8,
      "name": "floatBufferViews",
      "target": 34962
    },
    {
      "buffer": 0,
      "byteLength": 2959320,
      "byteOffset": 1170472,
      "byteStride": 12,
      "name": "floatBufferViews",
      "target": 34962
    }
  ],
  "buffers": [
    {
      "byteLength": 4129792,
      "uri": "scene.bin"
    }
  ],
  "extensionsRequired": [
    "KHR_materials_pbrSpecularGlossiness"
  ],
  "extensionsUsed": [
    "KHR_materials_pbrSpecularGlossiness"
  ],
  "materials": [
    {
      "doubleSided": true,
      "extensions": {
        "KHR_materials_pbrSpecularGlossiness": {
          "diffuseFactor": [
            0.08683247298883072,
            0.08683247298883072,
            0.08683247298883072,
            1.0
          ],
          "glossinessFactor": 0.9137360232019408,
          "specularFactor": [
            0.1658747241121427,
            0.1658747241121427,
            0.1658747241121427
          ]
        }
      },
      "name": "material_0"
    },
    {
      "doubleSided": true,
      "extensions": {
        "KHR_materials_pbrSpecularGlossiness": {
          "diffuseFactor": [
            1.0,
            1.0,
            1.0,
            1.0
          ],
          "glossinessFactor": 0.8225334257519654,
          "specularFactor": [
            0.1658747241121427,
            0.1658747241121427,
            0.1658747241121427
          ]
        }
      },
      "name": "defaultMat"
    }
  ],
  "meshes": [
    {
      "name": "Object_0",
      "primitives": [
        {
          "attributes": {
            "NORMAL": 1,
            "POSITION": 0,
            "TEXCOORD_0": 2
          },
          "indices": 3,
          "material": 1,
          "mode": 4
        }
      ]
    },
    {
      "name": "Object_1",
      "primitives": [
        {
          "attributes": {
            "NORMAL": 5,
            "POSITION": 4,
            "TEXCOORD_0": 6
          },
          "indices": 7,
          "material": 1,
          "mode": 4
        }
      ]
    },
    {
      "name": "Object_2",
      "primitives": [
        {
          "attributes": {
            "NORMAL": 9,
            "POSITION": 8
          },
          "indices": 10,
          "material": 0,
          "mode": 4
        }
      ]
    }
  ],
  "nodes": [
    {
      "children": [
        1
      ],
      "matrix": [
        0.6840292811393738,
        0.04650886729359611,
        0.7279703617095947,
        0.0,
        0.7287997007369995,
        -0.0012967103393746883,
        -0.6847257018089294,
        0.0,
        -0.030901851132512093,
        0.9989170432090759,
        -0.034782636910676734,
        0.0,
        -0.09026236832141876,
        -0.000260330096352835,
        -0.04696742817759514,
        1.0
      ],
      "name": "Sketchfab_model"
    },
    {
      "children": [
        2
      ],
      "name": "root"
    },
    {
      "children": [
        3,
        6
      ],
      "matrix": [
        1.0,
        0.0,
        0.0,
        0.0,
        0.0,
        2.220446049250313e-16,
        1.0,
        0.0,
        0.0,
        -1.0,
        2.220446049250313e-16,
        0.0,
        0.0,
        0.0,
        0.0,
        1.0
      ],
      "name": "GLTF_SceneRootNode"
    },
    {
      "children": [
        4,
        5
      ],
      "matrix": [
        1.0,
        0.0,
        0.0,
        0.0,
        0.0,
        -1.685873969314855e-07,
        0.9999999999999858,
        0.0,
        0.0,
        -0.9999999999999858,
        -1.685873969314855e-07,
        0.0,
        0.0,
        0.6151776313781738,
        0.0,
        1.0
      ],
      "name": "teeth_0"
    },
    {
      "mesh": 0,
      "name": "Object_4"
    },
    {
      "mesh": 1,
      "name": "Object_5"
    },
    {
      "children": [
        7
      ],
      "matrix": [
        0.15000000596046448,
        0.0,
        0.0,
        0.0,
        0.0,
        0.15000000596046448,
        0.0,
        0.0,
        0.0,
        0.0,
        0.15000000596046448,
        0.0,
        0.0,
        0.1372295320034027,
        -0.10390032082796097,
        1.0
      ],
      "name": "Wital Implant_1"
    },
    {
      "mesh": 2,
      "name": "Object_7"
    }
  ],
  "scene": 0,
  "scenes": [
    {
      "name": "Sketchfab_Scene",
      "nodes": [
        0
      ]
    }
  ]
}
